PathFileType	4	(X/Y/Z)	Patient4_TMGait_0pt3_02_left_25.trc.trc
DataRate	CameraRate	NumFrames	NumMarkers	Units	OrigDataRate	OrigDataStartFrame	OrigNumFrames
51.851851851852	51.851851851852	6	33	mm	51.851851851852	89	       141
Frame#	Time	Sacral			L.Shoulder			Chest			R.Shoulder			Neck			R.ASIS			L.ASIS			R.Thigh.Superior			R.Thigh.Lateral			R.Thigh.Inferior			R.Patella			L.Thigh.Superior			L.Thigh.Lateral			L.Thigh.Inferior			L.Patella			L.Shank.Superior			L.Shank.Lateral			L.Shank.Inferior			R.Shank.Superior			R.Shank.Lateral			R.Shank.Inferior			R.Heel			R.Midfoot.Superior			R.Midfoot.Lateral			R.Toe			L.Heel			L.Midfoot.Lateral			L.Midfoot.Superior			L.Toe			L.Elbow			L.Wrist			R.Elbow			R.Wrist			
		X1	Y1	Z1	X2	Y2	Z2	X3	Y3	Z3	X4	Y4	Z4	X5	Y5	Z5	X6	Y6	Z6	X7	Y7	Z7	X8	Y8	Z8	X9	Y9	Z9	X10	Y10	Z10	X11	Y11	Z11	X12	Y12	Z12	X13	Y13	Z13	X14	Y14	Z14	X15	Y15	Z15	X16	Y16	Z16	X17	Y17	Z17	X18	Y18	Z18	X19	Y19	Z19	X20	Y20	Z20	X21	Y21	Z21	X22	Y22	Z22	X23	Y23	Z23	X24	Y24	Z24	X25	Y25	Z25	X26	Y26	Z26	X27	Y27	Z27	X28	Y28	Z28	X29	Y29	Z29	X30	Y30	Z30	X31	Y31	Z31	X32	Y32	Z32	X33	Y33	Z33	

89	50.717142857143	776.949323445387	997.141805414974	466.384521732078	978.404986138224	1436.314656590495	334.870531380567	1040.369378362536	1366.296917820578	513.084395611065	917.809987533925	1432.995191716991	664.765992435304	919.875589087263	1492.756800913668	486.680436570697	987.946695430838	940.624317354771	623.040803913231	1017.229352489059	961.149622813116	350.418194478974	1052.940577506990	748.719360570884	585.917469857493	981.473232951534	629.981612104500	638.746297666137	1066.572157381460	587.497035563030	560.313943012343	1076.122824059585	498.342419478902	565.653126186685	1027.628250260025	728.306453348536	372.800275727422	927.772676926907	624.645549399355	296.883660255615	992.471589629065	533.114699492564	364.061752780400	978.688848786485	455.027052007281	362.825293764163	921.840531302595	397.222853706227	349.912596255448	797.395642165423	328.153010020380	289.372151702403	800.872063236540	200.388770857582	349.385059932664	1048.438772936686	406.846170021954	571.016096179659	977.986854686481	301.598714032030	632.268942906700	1022.584667458437	208.001279783348	568.784624225036	891.023884770318	41.689358099243	540.315845095640	1062.845838839993	98.215216756081	572.286175473318	976.486620705406	36.391091747707	612.496423198527	1183.295496322286	51.185083427519	594.660338746571	624.994215318284	87.549716553714	373.457367920921	700.231779169299	62.937371911143	299.615351252281	794.607110328011	104.399668078940	329.299576483836	905.656507267605	36.301717273573	310.316912573647	1154.313030668000	1170.121139021811	174.403399498214	1413.500548465845	1176.543220696383	201.149594093913	775.291387684593	1111.939479362584	745.532482007604	770.253631536349	850.084877905303	750.546364730827	
90	50.736428571429	777.291282444781	997.892823464513	472.390901292512	977.034157731325	1437.185753467913	338.453023778496	1041.094215857658	1367.074774017326	515.961044784060	920.212630426636	1433.610911856642	669.004788401274	920.362089894863	1493.577539170978	490.817923488724	989.843971309018	941.316179554392	626.566419194055	1016.235916312689	961.964782400035	353.760526401664	1052.591586231889	748.070217674751	588.815446704511	979.848072013398	629.889123826769	641.423069134983	1063.935320256820	586.768679299745	562.358315471622	1072.444361068246	497.637802874458	567.054830196901	1031.055725431033	730.334506928212	375.894138045870	934.198737897342	624.901828851858	299.854980255155	1001.954465476336	534.175031493219	366.232544349519	989.056457654081	454.756175214644	363.632354717262	929.839661677433	397.620658344503	351.007540993091	802.819528007196	333.048012128947	291.082005553801	803.199826048633	204.470705344537	349.147416356762	1044.390911763081	406.391544261269	572.206875685592	973.816523224734	301.179011955079	633.261478182149	1017.540245783493	207.678962481542	569.087751510949	885.333517987725	41.732286110970	540.335170685427	1057.171591205555	98.019425619133	572.285029627357	970.765492176821	36.453716338867	612.601035772410	1177.646265229928	50.766476084913	594.708169867790	623.963112969833	99.053032832311	373.387154118031	697.495346535480	70.206571251438	299.598195158996	793.745125200878	106.775563324254	328.678497565918	900.063170614108	35.505300666563	310.413809019410	1148.608891658506	1166.857022894062	178.280974587372	1408.076820058034	1170.277013731389	203.516932907947	780.410659567413	1111.636700446201	752.544200390704	777.768495908764	849.823903691698	758.114354263412	
91	50.755714285714	777.479545059316	998.422394559418	478.400356142458	975.390028153148	1437.816997980730	341.788887109628	1041.633593774080	1367.680879781001	518.564705654974	922.483043774258	1434.045027064087	672.982359897353	920.683454084291	1494.211048076792	494.699013142982	991.660440329088	941.827318521849	630.008302038991	1015.003856229809	962.585147731510	357.030355998629	1052.288672932149	747.375110092112	591.533229083039	978.372670569538	629.685753347741	643.967032225808	1061.431791704818	585.997353773899	564.247186494631	1068.944441385017	496.856574381448	568.310759361059	1034.872106338120	732.528292519774	379.015025669563	941.486370228542	625.177485830040	302.781630254088	1012.340681322080	535.517003468078	368.549188417559	1000.428110619967	454.782209656791	364.650171164531	938.942891265346	398.174037009397	352.237157293724	809.472147282661	338.325621676708	292.836590789716	806.433367579234	209.119239276559	349.075738719433	1040.494246583844	405.860186249123	573.262658568907	969.823131027036	300.707026934479	634.186521556851	1012.546574422371	207.289661528944	569.288372993878	879.600930209018	41.790804795633	540.327255193902	1051.458837477893	97.809251414720	572.255300139450	964.994462946205	36.518933419195	612.680164668725	1171.967324716650	50.242926573963	594.779942383096	623.955139243010	111.987623816556	373.479967180025	695.432603272598	78.742770791117	299.704016478466	793.454503559171	109.744320824070	328.237958828739	894.405418991781	34.557498564705	310.580161802146	1141.793528752447	1162.609780232099	182.258596162047	1401.597705967598	1162.199177456661	205.782877713703	785.853268737387	1110.960863104253	759.412399960334	785.827949378754	849.213771048639	765.682472498853	
92	50.775000000000	777.495934019576	998.692589281781	484.382738308786	973.489098445569	1438.160046516342	344.887648839184	1041.985945711729	1368.056795643996	520.901284607725	924.619317812306	1434.245452579140	676.698830265000	920.842882810605	1494.611609430060	498.327442288627	993.391145687660	942.119730783536	633.346616810854	1013.520277126747	962.963008664742	360.206662866487	1052.109480013511	746.643749665981	594.044633276878	977.186799342774	629.351233588715	646.353921656789	1059.217058351686	585.186811765794	565.953867615613	1065.821636914595	495.979194034499	569.404049022835	1039.008973457298	734.880614753212	382.171287253673	949.505279781424	625.509401000560	305.709454188061	1023.434568783013	537.184825432139	371.088404737724	1012.623921650702	455.160066336129	366.003767914118	949.005183866964	398.919462140121	353.702702765726	817.251458394637	343.954021981146	294.708242325201	810.525283181666	214.316433510845	349.285884264153	1036.900628504578	405.228195223972	574.166165834066	966.112854243202	300.185530269686	635.030347038048	1007.675323586309	206.822347410017	569.382953514922	873.837904177757	41.863025775817	540.301725150962	1045.727063981918	97.590268378158	572.194784274964	959.191389648762	36.585247744202	612.731002133386	1166.274723721646	49.629386772600	594.863737662249	625.025151351096	126.182404665036	373.843623938790	694.126378513577	88.515852687572	300.015391528287	793.739450322072	113.379069092636	328.074308215588	888.780789130864	33.479447046165	310.812506730475	1133.882557901298	1157.406336985491	186.377685612214	1394.016518244615	1152.124943448431	207.996520830881	791.682825114605	1109.826566816594	766.085089090934	794.637411066547	848.173930474355	773.203978188755	
93	50.794285714286	777.325372916946	998.674880787299	490.308081471698	971.343918651340	1438.178510405944	347.757827300853	1042.152503379636	1368.154866927563	522.973286653379	926.634348009315	1434.174251848858	680.158479864107	920.848279217025	1494.746425131659	501.710411924641	995.026499998210	942.168069196675	636.554479802301	1011.776213041158	963.065938597882	363.261987754546	1052.113319637727	745.881098899040	596.336343468006	976.398527403352	628.864887502495	648.560592857764	1057.424130680429	584.338265848066	567.461286864848	1063.245409114594	494.985453063126	570.326322728405	1043.370561803306	737.390596460503	385.380859125156	958.091011084894	625.939377038892	308.684135581386	1035.017309548957	539.218603931233	373.911983358141	1025.442124000116	455.934391326463	367.785453267864	959.847973717320	399.893685840381	355.482992969417	826.003994707940	349.882186091677	296.778835080235	815.417442259533	220.003082533527	349.881560114390	1033.735874055044	404.473847635158	574.908065954626	962.759965129048	299.618814472351	635.776497621874	1002.984600089937	206.271441593718	569.376092195022	868.056789190579	41.948148740708	540.268343177925	1039.993013860103	97.370347822268	572.105284874504	953.373975717733	36.651704499662	612.753144344569	1160.580793243172	48.951183527936	594.950385689584	627.198581292570	141.325079495028	374.600268566326	693.660796485062	99.373183169029	300.622626436034	794.626837030115	117.704903615072	328.268993473175	883.368040624066	32.335793078545	311.093905275403	1124.921451048053	1151.318450045036	190.674522830595	1385.271867748867	1139.884484934038	210.217378693531	797.968340346078	1108.179382141692	772.520269531114	804.417608205494	846.663979408823	780.618282542157	
94	50.813571428571	776.959940134816	998.352017716195	496.146235288718	968.964392443500	1437.849850796555	350.407050295339	1042.136133497054	1367.943085436838	524.781975963740	928.549033945405	1433.811443495025	683.367832222290	920.710012799917	1494.597064029911	504.857227426799	996.554380723698	941.960181453651	639.602603082833	1009.771801096767	962.880109037986	366.167400582940	1052.337685389719	745.087243345687	598.406604651694	976.077318642641	628.207999946739	650.568283373961	1056.153068382623	583.450283741903	568.763252473246	1061.341560308986	493.856480311029	571.078742024265	1047.834835469275	740.056386379208	388.664032675016	967.048298407665	626.509356887080	311.737854216706	1046.853105217255	541.646997446430	377.048990325779	1038.661919010507	457.135704553909	370.032896220847	971.265967013305	401.128689709342	357.615146301917	835.529470689367	356.030601815744	299.126886350072	821.049857277412	226.066631845790	350.937418750123	1031.090010679642	403.579077398394	575.488221225851	959.803668495100	299.012042286344	636.410049491086	998.515294325145	205.636257760500	569.279476025020	862.268889542138	42.046481501688	540.235211244146	1034.270140354116	97.157161764919	571.991280017909	947.557327546179	36.718274488792	612.748233825330	1154.893592165850	48.236735918984	595.033873404346	630.474427134880	156.943157390866	375.872741176035	694.125755219411	111.017133770066	301.612143187420	796.180246052594	122.678204888356	328.875352899912	878.447425903490	31.236697591812	311.389738166901	1114.982420279079	1144.456927306020	195.175935937105	1375.275617590594	1125.343406717859	212.510074904374	804.779887270415	1105.998918497208	778.685003701237	815.395699679214	844.690366720400	787.849168529263	
